<svg width="130" height="140" viewBox="0 0 130 140" fill="none" xmlns="http://www.w3.org/2000/svg">
<path d="M129.231 39.4872H0V17.9487C0 13.982 3.21282 10.7692 7.17949 10.7692H122.051C126.018 10.7692 129.231 13.982 129.231 17.9487V39.4872Z" fill="url(#paint0_linear_181_1681)"/>
<path d="M0 39.4872V132.821C0 136.787 3.21282 140 7.17949 140H122.051C126.018 140 129.231 136.787 129.231 132.821V39.4872H0Z" fill="url(#paint1_linear_181_1681)"/>
<path d="M53.8474 71.7949H46.6679C44.6863 71.7949 43.0781 70.1867 43.0781 68.2051V61.0257C43.0781 59.0441 44.6863 57.4359 46.6679 57.4359H53.8474C55.8289 57.4359 57.4371 59.0441 57.4371 61.0257V68.2051C57.4371 70.1867 55.8289 71.7949 53.8474 71.7949Z" fill="white"/>
<path d="M82.5641 71.7949H75.3847C73.4031 71.7949 71.7949 70.1867 71.7949 68.2051V61.0257C71.7949 59.0441 73.4031 57.4359 75.3847 57.4359H82.5641C84.5457 57.4359 86.1539 59.0441 86.1539 61.0257V68.2051C86.1539 70.1867 84.5457 71.7949 82.5641 71.7949Z" fill="white"/>
<path d="M111.283 71.7949H104.103C102.122 71.7949 100.514 70.1867 100.514 68.2051V61.0257C100.514 59.0441 102.122 57.4359 104.103 57.4359H111.283C113.264 57.4359 114.873 59.0441 114.873 61.0257V68.2051C114.873 70.1867 113.264 71.7949 111.283 71.7949Z" fill="white"/>
<path d="M53.8474 96.9231H46.6679C44.6863 96.9231 43.0781 95.3149 43.0781 93.3333V86.1538C43.0781 84.1723 44.6863 82.5641 46.6679 82.5641H53.8474C55.8289 82.5641 57.4371 84.1723 57.4371 86.1538V93.3333C57.4371 95.3149 55.8289 96.9231 53.8474 96.9231Z" fill="white"/>
<path d="M25.1286 96.9231H17.9491C15.9676 96.9231 14.3594 95.3149 14.3594 93.3333V86.1538C14.3594 84.1723 15.9676 82.5641 17.9491 82.5641H25.1286C27.1101 82.5641 28.7183 84.1723 28.7183 86.1538V93.3333C28.7183 95.3149 27.1101 96.9231 25.1286 96.9231Z" fill="white"/>
<path d="M82.5641 96.9231H75.3847C73.4031 96.9231 71.7949 95.3149 71.7949 93.3333V86.1538C71.7949 84.1723 73.4031 82.5641 75.3847 82.5641H82.5641C84.5457 82.5641 86.1539 84.1723 86.1539 86.1538V93.3333C86.1539 95.3149 84.5457 96.9231 82.5641 96.9231Z" fill="white"/>
<path d="M53.8474 122.051H46.6679C44.6863 122.051 43.0781 120.443 43.0781 118.462V111.282C43.0781 109.3 44.6863 107.692 46.6679 107.692H53.8474C55.8289 107.692 57.4371 109.3 57.4371 111.282V118.462C57.4371 120.443 55.8289 122.051 53.8474 122.051Z" fill="white"/>
<path d="M25.1286 122.051H17.9491C15.9676 122.051 14.3594 120.443 14.3594 118.462V111.282C14.3594 109.3 15.9676 107.692 17.9491 107.692H25.1286C27.1101 107.692 28.7183 109.3 28.7183 111.282V118.462C28.7183 120.443 27.1101 122.051 25.1286 122.051Z" fill="white"/>
<path d="M82.5641 122.051H75.3847C73.4031 122.051 71.7949 120.443 71.7949 118.462V111.282C71.7949 109.3 73.4031 107.692 75.3847 107.692H82.5641C84.5457 107.692 86.1539 109.3 86.1539 111.282V118.462C86.1539 120.443 84.5457 122.051 82.5641 122.051Z" fill="white"/>
<path d="M111.283 96.9231H104.103C102.122 96.9231 100.514 95.3149 100.514 93.3333V86.1538C100.514 84.1723 102.122 82.5641 104.103 82.5641H111.283C113.264 82.5641 114.873 84.1723 114.873 86.1538V93.3333C114.873 95.3149 113.264 96.9231 111.283 96.9231Z" fill="white"/>
<path opacity="0.05" d="M28.7165 10.7692V23.3333C28.7165 24.3241 27.9088 25.1282 26.9216 25.1282C25.9344 25.1282 25.1267 24.3241 25.1267 23.3333V10.7692H17.9473V23.3333C17.9473 28.28 21.9714 32.3077 26.9216 32.3077C31.8719 32.3077 35.896 28.28 35.896 23.3333V10.7692H28.7165Z" fill="black"/>
<path opacity="0.07" d="M30.5134 10.7692V23.3333C30.5134 25.3113 28.9052 26.9231 26.9236 26.9231C24.9421 26.9231 23.3339 25.3113 23.3339 23.3333V10.7692H19.7441V23.3333C19.7441 27.2928 22.9641 30.5128 26.9236 30.5128C30.8831 30.5128 34.1031 27.2928 34.1031 23.3333V10.7692H30.5134Z" fill="black"/>
<path opacity="0.05" d="M104.103 10.7692V23.3333C104.103 24.3241 103.296 25.1282 102.308 25.1282C101.321 25.1282 100.513 24.3241 100.513 23.3333V10.7692H93.334V23.3333C93.334 28.28 97.3581 32.3077 102.308 32.3077C107.259 32.3077 111.283 28.28 111.283 23.3333V10.7692H104.103Z" fill="black"/>
<path opacity="0.07" d="M105.896 10.7692V23.3333C105.896 25.3113 104.288 26.9231 102.306 26.9231C100.325 26.9231 98.7167 25.3113 98.7167 23.3333V10.7692H95.127V23.3333C95.127 27.2928 98.347 30.5128 102.306 30.5128C106.266 30.5128 109.486 27.2928 109.486 23.3333V10.7692H105.896Z" fill="black"/>
<path d="M102.306 28.7179C99.3342 28.7179 96.9219 26.3056 96.9219 23.3333V5.38461C96.9219 2.41231 99.3342 0 102.306 0C105.279 0 107.691 2.41231 107.691 5.38461V23.3333C107.691 26.3056 105.279 28.7179 102.306 28.7179Z" fill="#54DAFF"/>
<path d="M26.9237 28.7179C23.9514 28.7179 21.5391 26.3056 21.5391 23.3333V5.38461C21.5391 2.41231 23.9514 0 26.9237 0C29.896 0 32.3083 2.41231 32.3083 5.38461V23.3333C32.3083 26.3056 29.896 28.7179 26.9237 28.7179Z" fill="#54DAFF"/>
<defs>
<linearGradient id="paint0_linear_181_1681" x1="61.0974" y1="4.88923" x2="68.4313" y2="54.0041" gradientUnits="userSpaceOnUse">
<stop offset="0.042" stop-color="#076DB4"/>
<stop offset="0.85" stop-color="#0461AF"/>
</linearGradient>
<linearGradient id="paint1_linear_181_1681" x1="56.1256" y1="12.2662" x2="77.42" y2="198.129" gradientUnits="userSpaceOnUse">
<stop stop-color="#33BEF0"/>
<stop offset="1" stop-color="#0A85D9"/>
</linearGradient>
</defs>
</svg>
