<svg width="140" height="132" viewBox="0 0 140 132" fill="none" xmlns="http://www.w3.org/2000/svg">
<path fill-rule="evenodd" clip-rule="evenodd" d="M94.0402 0.172974C92.5861 -0.358703 91.0084 0.385789 90.2359 1.7275C86.2074 8.72475 78.654 13.4357 70.0002 13.4357C61.3464 13.4357 53.7929 8.7247 49.7644 1.72738C48.992 0.385669 47.4142 -0.358832 45.9602 0.172837C38.2794 2.98134 31.2283 7.09707 25.0762 12.2507C23.8902 13.2442 23.7456 14.9812 24.5199 16.3207C28.5578 23.306 28.8577 32.1962 24.5336 39.6856C20.208 47.1778 12.3548 51.3636 4.28329 51.3562C2.73394 51.3548 1.29977 52.3508 1.03472 53.8773C0.354542 57.7947 0 61.8238 0 65.9357C0 70.0476 0.354534 74.0767 1.0347 77.994C1.29975 79.5205 2.73392 80.5165 4.28327 80.5151C12.3548 80.5077 20.208 84.6935 24.5336 92.1856C28.8577 99.6751 28.5578 108.565 24.5198 115.551C23.7455 116.89 23.8901 118.627 25.0761 119.621C31.2283 124.774 38.2794 128.89 45.9602 131.699C47.4142 132.23 48.992 131.486 49.7644 130.144C53.7929 123.147 61.3464 118.436 70.0002 118.436C78.654 118.436 86.2074 123.147 90.2359 130.144C91.0084 131.486 92.5861 132.23 94.0402 131.698C101.721 128.89 108.772 124.774 114.924 119.621C116.11 118.627 116.254 116.89 115.48 115.551C111.442 108.566 111.142 99.6752 115.466 92.1856C119.792 84.6934 127.645 80.5076 135.717 80.5151C137.266 80.5165 138.7 79.5206 138.965 77.994C139.645 74.0767 140 70.0476 140 65.9357C140 61.8238 139.645 57.7947 138.965 53.8773C138.7 52.3507 137.266 51.3548 135.717 51.3562C127.645 51.3637 119.792 47.1779 115.466 39.6856C111.142 32.1961 111.442 23.3058 115.48 16.3205C116.254 14.981 116.11 13.244 114.924 12.2504C108.772 7.09703 101.721 2.98143 94.0402 0.172974Z" fill="url(#paint0_linear_178_1506)"/>
<circle cx="70" cy="64.8821" r="35" fill="url(#paint1_linear_178_1506)"/>
<circle cx="69.9994" cy="64.8821" r="23.3333" fill="url(#paint2_linear_178_1506)"/>
<defs>
<linearGradient id="paint0_linear_178_1506" x1="4.641" y1="1.64398" x2="118.003" y2="116.279" gradientUnits="userSpaceOnUse">
<stop stop-color="#889097"/>
<stop offset="0.331" stop-color="#848C94"/>
<stop offset="0.669" stop-color="#78828B"/>
<stop offset="1" stop-color="#64717C"/>
</linearGradient>
<linearGradient id="paint1_linear_178_1506" x1="45.2083" y1="29.8821" x2="96.25" y2="101.34" gradientUnits="userSpaceOnUse">
<stop stop-color="#C2C8CC"/>
<stop offset="1" stop-color="#FDFDFD"/>
</linearGradient>
<linearGradient id="paint2_linear_178_1506" x1="52.4993" y1="41.5488" x2="86.041" y2="88.2154" gradientUnits="userSpaceOnUse">
<stop stop-color="#0668BB"/>
<stop offset="1" stop-color="#104C8E"/>
</linearGradient>
</defs>
</svg>
