<svg width="144" height="144" viewBox="0 0 144 144" fill="none" xmlns="http://www.w3.org/2000/svg">
<path fill-rule="evenodd" clip-rule="evenodd" d="M130 0C137.732 0 144 6.26801 144 14V34.3126V130C144 137.732 137.732 144 130 144H109.687H34.3126H14C6.26801 144 0 137.732 0 130V34.3126V14C0 6.26801 6.26801 0 14 0H130Z" fill="#006810"/>
<path fill-rule="evenodd" clip-rule="evenodd" d="M32.6096 62.5182C27.2445 52.7914 25.1992 44.9498 25.1992 39.6535C25.1992 34.3571 26.5005 32.838 27.821 31.6109C29.1413 30.3836 35.0956 26.7127 36.1101 26.028C37.1247 25.3434 40.9967 24.013 43.4249 27.5059C45.8531 30.999 50.4257 38.0123 53.5783 42.6713C58.5253 49.2705 54.5841 52.1674 53.3111 53.9036C50.9686 57.0986 49.6198 57.8867 49.6198 61.81C49.6198 65.7332 60.5842 76.8793 63.2059 79.6255C65.8077 82.351 76.7327 91.9283 80.1181 92.4404C83.5271 92.9562 88.091 89.347 89.0613 88.4317C93.9975 84.6419 96.7839 87.5152 99.0577 88.764C101.331 90.013 111.604 96.4144 114.788 98.5722C117.784 100.73 117.597 104.065 117.597 104.065C117.597 104.065 111.417 113.873 110.668 115.05C109.732 116.423 107.485 117.6 102.428 117.6C97.3723 117.6 91.97 116.676 79.1312 109.616C68.626 103.838 58.6117 94.7911 53.3683 89.4947C47.9375 84.1984 38.738 73.6289 32.6096 62.5182Z" fill="white"/>
</svg>
