<svg width="144" height="144" viewBox="0 0 144 144" fill="none" xmlns="http://www.w3.org/2000/svg">
<g clip-path="url(#clip0_181_1626)">
<path d="M130.014 0H25.5836H14C6.26801 0 0 6.22997 0 13.962V117.761V129.994C0 137.726 6.268 143.994 14 143.994H130.014C137.746 143.994 144.014 137.726 144.014 129.994V14C144.014 6.26801 137.746 0 130.014 0Z" fill="#8D0A02"/>
<path d="M114.817 83.2165C108.07 75.835 89.6839 79.067 85.2498 79.5258C78.9531 73.0677 74.5105 65.7439 72.7098 62.9737C74.9606 56.0481 76.7585 48.2568 76.7585 40.8869C76.7585 33.9613 74.0603 27.105 66.9111 27.105C65.6366 27.0913 64.3814 27.426 63.2748 28.0746C62.1681 28.7233 61.2499 29.6625 60.6144 30.7957C57.466 36.3304 58.8137 47.3478 63.7627 58.8241C61.0533 67.1261 56.5657 79.5258 51.2228 89.1668C44.0257 91.9341 28.3374 99.2666 26.9897 107.563C26.5396 109.871 27.4399 112.636 29.2406 114.021C31.0412 115.868 33.2892 116.329 35.5373 116.329C44.9289 116.329 54.388 103.009 61.1236 91.0136C66.52 89.1696 75.0113 86.3965 83.5588 85.0172C93.4062 94.2513 102.393 95.57 106.892 95.57C113.191 95.57 115.439 92.8027 116.283 90.4942C117.459 88.3011 116.618 85.0634 114.817 83.2165ZM108.521 87.8336C108.07 89.6775 105.822 91.5243 101.768 90.6009C96.8191 89.2187 92.3765 86.9102 88.778 83.6754C91.9263 83.2137 99.5173 82.2902 104.916 83.2137C106.72 83.684 108.971 85.0634 108.521 87.8307V87.8336ZM64.9923 32.6396C65.203 32.2157 65.5259 31.8612 65.924 31.6168C66.3221 31.3723 66.7792 31.2478 67.2431 31.2574C69.4939 31.2574 69.9413 34.0248 69.9413 36.3304C69.4911 41.868 68.5936 47.8067 66.7929 52.8825C63.2 42.7914 63.6502 35.4099 64.9923 32.6396ZM64.5421 84.6017C66.7929 80.4492 69.4883 72.6637 70.3886 69.8848C72.6395 74.0373 76.6853 78.6485 78.486 80.8994C78.9446 80.5098 70.8472 82.2931 64.5505 84.6017H64.5421ZM49.3124 95.2266C43.0691 105.326 37.2141 111.779 33.6241 111.779C33.1739 111.779 32.2736 111.779 31.8234 111.317C31.376 110.394 30.9259 109.47 31.376 108.55C31.8234 104.845 39.0232 99.7687 49.3124 95.2266Z" fill="white"/>
</g>
<defs>
<clipPath id="clip0_181_1626">
<rect width="144" height="144" fill="white"/>
</clipPath>
</defs>
</svg>
