<svg width="135" height="135" viewBox="0 0 135 135" fill="none" xmlns="http://www.w3.org/2000/svg">
<path d="M121 0H14C6.26801 0 0 6.26801 0 14V121C0 128.732 6.26801 135 14 135H121C128.732 135 135 128.732 135 121V14C135 6.26801 128.732 0 121 0Z" fill="#075CB2"/>
<path fill-rule="evenodd" clip-rule="evenodd" d="M54.0427 52.3289H71.1045V61.159H71.3462C73.7302 56.8764 79.531 52.3289 88.1992 52.3289C106.206 52.3289 109.535 63.5872 109.535 78.234V109.205H91.7478V81.6777C91.7478 75.3753 91.616 67.2627 82.4973 67.2627C73.3787 67.2627 71.8186 74.117 71.8186 81.2252V109.26H54.0427V52.3289ZM43.9463 35.0883C43.9463 36.9264 43.4038 38.7232 42.3873 40.2516C41.3708 41.7799 39.9261 42.9711 38.2358 43.6745C36.5455 44.3779 34.6855 44.5619 32.8911 44.2033C31.0967 43.8447 29.4484 42.9596 28.1547 41.6599C26.861 40.3601 25.98 38.7042 25.6231 36.9014C25.2661 35.0986 25.4493 33.23 26.1495 31.5318C26.8496 29.8336 28.0353 28.3822 29.5565 27.361C31.0777 26.3398 32.8662 25.7947 34.6958 25.7947C37.1483 25.7976 39.4995 26.7777 41.2337 28.52C42.9678 30.2622 43.9434 32.6244 43.9463 35.0883ZM25.4673 52.3289H43.9463V109.205H25.4673V52.3289Z" fill="white"/>
</svg>
