<svg width="144" height="144" viewBox="0 0 144 144" fill="none" xmlns="http://www.w3.org/2000/svg">
<path fill-rule="evenodd" clip-rule="evenodd" d="M130 0C137.732 0 144 6.26801 144 14V34.3126C144 49.9665 144 104.124 144 130.01C144 137.742 137.732 144 130 144H109.687H34.3126H14C6.26802 144 0 137.732 0 130V34.3126V14C0 6.26802 6.26801 0 14 0H130Z" fill="#2E3240"/>
<path fill-rule="evenodd" clip-rule="evenodd" d="M85.5645 32.8799C89.1925 28.9364 91.1905 23.5208 90.875 18C85.9326 18 80.2014 20.8919 76.5735 25.1508C73.7342 28.6735 70.6847 34.1944 71.7888 39.7152C76.8889 40.346 82.4097 37.1388 85.5645 32.8799ZM90.4017 40.9244C82.7252 40.9244 75.9426 45.1834 72.3146 45.1834C68.5289 45.1834 63.0081 40.7142 56.8038 40.9244C48.7065 41.0822 41.2929 45.8669 37.1393 52.9124C34.1948 57.9601 33.038 63.9016 33.1433 69.9481C33.3009 81.3577 37.7701 93.2406 43.028 100.812C47.0767 106.596 51.651 112.8 58.1183 112.8C63.9545 112.8 66.1103 108.909 73.7342 108.909C80.8323 108.909 83.0407 112.8 89.1925 112.8C95.6597 112.8 99.9186 106.911 103.757 101.075C108.594 94.2922 110.224 87.825 110.434 87.5621C110.224 87.5621 98.0257 82.6196 97.5525 68.5284C97.5525 56.1724 107.595 50.599 108.016 50.3362C102.548 41.9234 93.7142 40.9244 90.4017 40.9244Z" fill="white"/>
</svg>
