<svg width="144" height="144" viewBox="0 0 144 144" fill="none" xmlns="http://www.w3.org/2000/svg">
<path fill-rule="evenodd" clip-rule="evenodd" d="M130.051 -3.8147e-06C137.783 -3.8147e-06 144 6.26801 144 14V130C144 137.732 137.732 144 130 144H34.3126H14C6.26801 144 0 137.732 0 130V34.3126V14C0 6.26801 6.21705 -3.8147e-06 13.949 -3.8147e-06C43.2613 -3.8147e-06 102.947 -3.8147e-06 130.051 -3.8147e-06Z" fill="white"/>
<path fill-rule="evenodd" clip-rule="evenodd" d="M130.051 -3.8147e-06C137.783 -3.8147e-06 144 6.26801 144 14V130C144 137.732 137.732 144 130 144H34.3126H14C6.26801 144 0 137.732 0 130V34.3126V14C0 6.26801 6.21705 -3.8147e-06 13.949 -3.8147e-06C43.2613 -3.8147e-06 102.947 -3.8147e-06 130.051 -3.8147e-06Z" fill="url(#paint0_linear_181_1593)"/>
<path d="M81.5996 24L33.5996 72L47.9996 86.4L110.4 24H81.5996Z" fill="#40C4FF"/>
<path d="M110.4 67.2L83.9996 93.6L69.5996 79.2L81.5996 67.2H110.4Z" fill="#40C4FF"/>
<path d="M69.5965 79.2005L55.1973 93.6002L69.597 108L83.9963 93.5997L69.5965 79.2005Z" fill="#03A9F4"/>
<path d="M110.4 120H81.5996L69.5996 108L83.9996 93.6L110.4 120Z" fill="#01579B"/>
<path d="M69.5996 108L91.1996 100.8L83.9996 93.6L69.5996 108Z" fill="#084994"/>
<defs>
<linearGradient id="paint0_linear_181_1593" x1="72" y1="1.70306e-07" x2="72" y2="144" gradientUnits="userSpaceOnUse">
<stop offset="0.095" stop-color="white" stop-opacity="0"/>
<stop offset="1" stop-color="#1BCAE9" stop-opacity="0.42"/>
</linearGradient>
</defs>
</svg>
