<svg width="144" height="144" viewBox="0 0 144 144" fill="none" xmlns="http://www.w3.org/2000/svg">
<path fill-rule="evenodd" clip-rule="evenodd" d="M109.687 0H130C137.732 0 144 6.23275 144 13.9647C144 43.099 144 100.901 144 130.035C144 137.767 137.732 144 130 144H109.687H34.3126C13.5 144 0 130.5 0 109.687V14C0 6.268 6.26801 0 14 0H34.3126H109.687Z" fill="url(#paint0_radial_181_1640)"/>
<mask id="mask0_181_1640" style="mask-type:alpha" maskUnits="userSpaceOnUse" x="0" y="0" width="144" height="144">
<path fill-rule="evenodd" clip-rule="evenodd" d="M103.888 0C107.601 0 111.162 1.475 113.788 4.10051L139.899 30.2121C142.525 32.8376 144 36.3985 144 40.1116V130C144 137.732 137.732 144 130 144H109.687C92.3585 144 42.2735 144 13.9791 144C6.24709 144 0 137.732 0 130V109.687C0 109.687 0 109.687 0 109.687C0 109.687 0 63.7439 0 40.0934C0 36.3804 1.475 32.8376 4.10051 30.2121L30.2121 4.10051C32.8376 1.475 36.3985 0 40.1116 0H103.888Z" fill="white"/>
</mask>
<g mask="url(#mask0_181_1640)">
<path fill-rule="evenodd" clip-rule="evenodd" d="M29.998 41.9999H32.398V145.2H29.998V41.9999ZM-0.00195312 28.7999H11.998V145.2H-0.00195312V28.7999ZM11.998 32.3999H19.198V145.2H11.998V32.3999ZM19.198 35.9999H25.198V145.2H19.198V35.9999ZM25.198 39.5999H29.998V145.2H25.198V39.5999ZM32.398 45.5999H39.598V145.2H32.398V45.5999ZM39.598 41.9999H43.198V145.2H39.598V41.9999ZM43.198 38.3999H49.198V145.2H43.198V38.3999ZM49.198 34.7999H56.398V145.2H49.198V34.7999ZM56.398 32.3999H76.798V145.2H56.398V32.3999ZM76.798 34.7999H82.7981V145.2H76.798V34.7999ZM82.7981 32.3999H86.3981V145.2H82.7981V32.3999ZM86.3981 28.7999H93.5981V145.2H86.3981V28.7999ZM93.5981 25.1999H99.5981V145.2H93.5981V25.1999ZM99.5981 21.5999H119.998V145.2H99.5981V21.5999ZM119.998 25.1999H130.798V145.2H119.998V25.1999ZM130.798 28.7999H136.798V145.2H130.798V28.7999ZM136.798 32.3999H143.998V145.2H136.798V32.3999Z" fill="url(#paint1_linear_181_1640)"/>
<path fill-rule="evenodd" clip-rule="evenodd" d="M-1.19922 82.7999H2.40078V135.6H-1.19922V82.7999ZM2.40078 79.1999H6.00078V135.6H2.40078V79.1999ZM6.00078 76.7999H13.2008V135.6H6.00078V76.7999ZM114.001 109.2H117.601V135.6H114.001V109.2ZM117.601 82.7999H120.001V135.6H117.601V82.7999ZM120.001 79.1999H124.801V135.6H120.001V79.1999ZM124.801 75.5999H132.001V135.6H124.801V75.5999ZM132.001 71.9999H146.401V135.6H132.001V71.9999ZM13.2008 71.9999H114.001V135.6H13.2008V71.9999Z" fill="#448646" fill-opacity="0.05"/>
<path opacity="0.7" fill-rule="evenodd" clip-rule="evenodd" d="M12.002 89.9999H45.602V106.853H35.9974L35.8768 128.4H12.002V89.9999ZM15.602 93.5999V124.8H32.2969L32.3974 106.833L32.4176 103.253H42.002V93.5999H15.602Z" fill="#3CAB51"/>
<path opacity="0.7" fill-rule="evenodd" clip-rule="evenodd" d="M22.7988 79.1998H45.5988V93.5998H22.7988V79.1998ZM26.3988 82.7998V89.9998H41.9988V82.7998H26.3988Z" fill="#3CAB51"/>
<path opacity="0.7" fill-rule="evenodd" clip-rule="evenodd" d="M32.3984 103.2H52.7984V141.6H32.3984V103.2ZM35.9984 106.8V138H49.1984V106.8H35.9984Z" fill="#3CAB51"/>
<path opacity="0.7" fill-rule="evenodd" clip-rule="evenodd" d="M49.2012 92.3998H79.2012V141.6H49.2012V92.3998ZM52.8012 95.9998V138H75.6012V95.9998H52.8012Z" fill="#3CAB51"/>
<path opacity="0.7" fill-rule="evenodd" clip-rule="evenodd" d="M75.6016 92.3998H103.202V141.6H75.6016V92.3998ZM79.2016 95.9998V138H99.6016V95.9998H79.2016Z" fill="#3CAB51"/>
<path opacity="0.7" fill-rule="evenodd" clip-rule="evenodd" d="M130.799 89.9999H158.399V141.6H130.799V89.9999ZM134.399 93.5999V138H154.799V93.5999H134.399Z" fill="#3CAB51"/>
<path opacity="0.7" fill-rule="evenodd" clip-rule="evenodd" d="M140.398 79.1998H158.398V93.5998H140.398V79.1998ZM143.998 82.7998V89.9998H154.798V82.7998H143.998Z" fill="#3CAB51"/>
<path opacity="0.8" fill-rule="evenodd" clip-rule="evenodd" d="M15.5996 95.9999H19.1996V103.2H15.5996V95.9999ZM22.7996 95.9999H26.3996V103.2H22.7996V95.9999ZM39.5996 110.4H43.1996V117.6H39.5996V110.4ZM46.7996 110.4H49.1996V117.6H46.7996V110.4ZM29.9996 95.9999H33.5996V103.2H29.9996V95.9999ZM15.5996 105.6H19.1996V112.8H15.5996V105.6ZM22.7996 105.6H26.3996V112.8H22.7996V105.6ZM29.9996 105.6H32.3996V112.8H29.9996V105.6ZM15.5996 115.2H19.1996V122.4H15.5996V115.2ZM22.7996 115.2H26.3996V122.4H22.7996V115.2ZM29.9996 115.2H32.3996V122.4H29.9996V115.2ZM55.1996 102H58.7996V109.2H55.1996V102ZM62.3996 102H65.9996V109.2H62.3996V102ZM69.5996 102H73.1996V109.2H69.5996V102ZM55.1996 111.6H58.7996V118.8H55.1996V111.6ZM62.3996 111.6H65.9996V118.8H62.3996V111.6ZM69.5996 111.6H73.1996V118.8H69.5996V111.6ZM55.1996 121.2H58.7996V128.4H55.1996V121.2ZM62.3996 121.2H65.9996V128.4H62.3996V121.2ZM69.5996 121.2H73.1996V128.4H69.5996V121.2ZM86.3996 97.1999H89.9996V104.4H86.3996V97.1999ZM93.5996 97.1999H97.1996V104.4H93.5996V97.1999ZM86.3996 106.8H89.9996V114H86.3996V106.8ZM93.5996 106.8H97.1996V114H93.5996V106.8ZM86.3996 116.4H89.9996V123.6H86.3996V116.4ZM93.5996 116.4H97.1996V123.6H93.5996V116.4ZM134.4 97.1999H138V104.4H134.4V97.1999ZM141.6 97.1999H145.2V104.4H141.6V97.1999ZM134.4 106.8H138V114H134.4V106.8ZM141.6 106.8H145.2V114H141.6V106.8ZM134.4 116.4H138V123.6H134.4V116.4ZM141.6 116.4H145.2V123.6H141.6V116.4Z" fill="#42AD4D" fill-opacity="0.630491"/>
<path fill-rule="evenodd" clip-rule="evenodd" d="M133.297 144.429H126.097H116.018V144.405H103.2V144.411H96.7378V144.314H93.369H89.393V144.347H78.6259V144.353H70.8259H65.7161V144.392H51.5561V144.368H38.708V144.392H25.1561V144.387H13.3236H6.89889H-1.20117V122.787H5.39895V119.58H11.6483V116.42H25.2002V119.584H38.4002V116.4H52.2002V119.584H65.7161V126H69.0259V122.753H78.6259V125.994H89.393V129.159H93.1378V125.96H96.7378V122.811H102.619V119.597H110.4V116.4H123V119.621H130.177V122.829H136.177V126.075H144.577V144.429H133.297Z" fill="#37B640"/>
<path fill-rule="evenodd" clip-rule="evenodd" d="M109.809 135.559H103.292V138.756H109.916V135.986H123.01V132.789H109.809V135.559ZM123.01 119.589H130.209V122.786H123.009V119.597H109.809V116.4H123.01V119.589ZM38.6941 119.597V122.779H25.1341V119.597H11.6486V122.786H5.40862V119.589H11.6228V116.4H25.1828V119.582H38.65V116.4H52.21V119.589H65.7686V122.786H52.2086V119.597H38.6941ZM96.7178 125.963H93.1445V129.159H96.7445V125.983H102.609V122.786H96.7178V125.963ZM72.7178 125.983V129.169H56.3843V125.972H59.5178V122.786H65.7578V125.972H69.0086V122.786H78.6086V125.983H72.7178ZM38.6313 125.983V136.772H42.6033V135.559H52.1901V132.384H56.4332V129.187H49.8089V132.362H42.6033V125.972H38.6408V122.786H32.4008V125.983H38.6313ZM96.7208 132.365H103.281V135.561H96.6571V132.369H89.4008V129.173H96.7208V132.365ZM126.609 135.992H123.002V139.189H128.118H129.626V132.789H126.609V135.992ZM8.40078 125.972V122.786H-1.19922V125.983H8.38438V129.169H15.0086V125.972H8.40078ZM15.0089 129.187H21.6332V132.384H15.0089V129.187ZM25.633 139.987H32.2573V143.184H25.633V139.987ZM96.6086 138.771H103.233V141.968H96.6086V138.771ZM32.2695 136.79H38.6295V139.987H32.2695V136.79ZM52.2086 135.575H59.0295V138.771H52.2086V135.575ZM59.0415 138.781H65.8624V141.978H59.0415V138.781ZM130.081 129.173H136.321V132.369H130.081V129.173ZM78.6086 125.972H89.4086V129.169H78.6086V125.972ZM136.345 125.963H144.609V129.159H136.345V125.963ZM21.6521 132.38H25.6294V139.989H21.6521V132.38ZM130.318 122.786H136.209V125.983H130.318V122.786ZM102.609 119.589H109.809V122.786H102.609V119.589Z" fill="#35AA3F"/>
<g filter="url(#filter0_d_181_1640)">
<path fill-rule="evenodd" clip-rule="evenodd" d="M41.9375 88.845V94.1322H52.798V99.6006H79.9343V94.2915H74.6002L74.5198 88.3767H69.0779V83.3535H52.9803V88.845H41.9375Z" fill="#FBBB11"/>
<path fill-rule="evenodd" clip-rule="evenodd" d="M74.3984 83.2162H79.2026L79.3919 77.5768H112.554L112.346 83.3946L112.437 94.3726H79.7614V88.4049H74.3984V83.2162Z" fill="#FD684A"/>
<path fill-rule="evenodd" clip-rule="evenodd" d="M30.8301 61.4419L47.5745 61.3648L47.484 50.695H57.8559V45.1534H91.2447V50.695H96.3334L96.5495 56.0346H102.011V77.5763H30.8301V61.4419Z" fill="white"/>
<path fill-rule="evenodd" clip-rule="evenodd" d="M74.2129 56.1414H79.9172V67.2096H85.5906V72.8687H74.2129V56.1414Z" fill="#F5F1F0"/>
<path fill-rule="evenodd" clip-rule="evenodd" d="M52.9928 55.9775H57.9085V50.7125H69.1153L69.2912 67.1449H74.7374L74.9158 72.6726H79.7983V77.5764H75.7124V83.4013L35.8881 83.3153V77.5764H30.8945V72.2117H35.9745V77.5764H52.9928V72.2117H58.4889V66.9857H52.9928V55.9775Z" fill="#F9F025"/>
<path fill-rule="evenodd" clip-rule="evenodd" d="M79.8289 88.3764H106.856V94.3595H112.5V88.3602V83.3842H118.752V77.5771H112.226L112.228 83.3842H79.8289V77.5764H112.228V72.7216H107.16V56.1688H101.999V50.6587H96.3292V56.1688H90.6907V66.9935H96.3602V56.1787H101.999V72.744L79.8435 72.7216V67.224H74.779V50.6998H69.139V67.2345H74.7619V72.744H79.7431V77.5602H74.4557V83.3842H79.8289L79.8283 88.3602H74.4557V94.3595H79.8283V99.6016H106.856V94.3595H79.8283L79.8289 88.3764ZM57.8557 39.6345H91.1987V45.1541L96.3569 45.1488V50.6688L91.1903 50.6741V45.1545H79.8605V50.6921H74.779V45.1545H57.8725V50.6688H47.4325V45.1488H57.8557V39.6345ZM41.9428 94.1103V88.8505H53.0061V83.3305H35.9428V88.7299V94.1292H41.9241V99.6303H52.7845V94.1103H41.9428ZM41.4612 55.9764H30.8248V61.4964H52.9903V66.9966H58.0719V61.4766H53.0248V55.9764H47.4612V50.6716H41.4612V55.9764ZM63.4543 77.5764V66.9847H58.0811L58.0913 77.5764H53.0098V83.3446H58.0913V77.5764H63.4543ZM30.8459 61.4973V77.5764H25.4727V61.4973H30.8459ZM30.8613 77.5764H35.4727H35.9428V83.3292H30.8613V77.8093V77.5764ZM69.0639 83.3659H74.4371V88.4059H69.0639V83.3659ZM79.8245 99.6046V105.125H52.7971V99.6046H79.8245Z" fill="#424242"/>
</g>
</g>
<defs>
<filter id="filter0_d_181_1640" x="17.4727" y="37.6345" width="109.279" height="81.4901" filterUnits="userSpaceOnUse" color-interpolation-filters="sRGB">
<feFlood flood-opacity="0" result="BackgroundImageFix"/>
<feColorMatrix in="SourceAlpha" type="matrix" values="0 0 0 0 0 0 0 0 0 0 0 0 0 0 0 0 0 0 127 0" result="hardAlpha"/>
<feOffset dy="6"/>
<feGaussianBlur stdDeviation="4"/>
<feColorMatrix type="matrix" values="0 0 0 0 0.00679026 0 0 0 0 0.30676 0 0 0 0 0.0429935 0 0 0 0.638304 0"/>
<feBlend mode="normal" in2="BackgroundImageFix" result="effect1_dropShadow_181_1640"/>
<feBlend mode="normal" in="SourceGraphic" in2="effect1_dropShadow_181_1640" result="shape"/>
</filter>
<radialGradient id="paint0_radial_181_1640" cx="0" cy="0" r="1" gradientUnits="userSpaceOnUse" gradientTransform="translate(72) rotate(90) scale(184.116)">
<stop stop-color="#99E6C2"/>
<stop offset="1" stop-color="#36B33C"/>
</radialGradient>
<linearGradient id="paint1_linear_181_1640" x1="20.4289" y1="21.5999" x2="20.4289" y2="110.127" gradientUnits="userSpaceOnUse">
<stop stop-color="#A9E6AB"/>
<stop offset="1" stop-color="#4BB84D"/>
</linearGradient>
</defs>
</svg>
