<svg width="144" height="144" viewBox="0 0 144 144" fill="none" xmlns="http://www.w3.org/2000/svg">
<path fill-rule="evenodd" clip-rule="evenodd" d="M109.687 0H129.5C137.232 0 143.5 6.23275 143.5 13.9647C143.5 43.099 143.5 100.901 143.5 130.035C143.5 137.767 137.232 144 129.5 144H109.687H34.3126H14C6.26801 144 0 137.732 0 130V14C0 6.26801 6.26801 0 14 0H34.3126H109.687Z" fill="white"/>
<path fill-rule="evenodd" clip-rule="evenodd" d="M109.687 0H129.5C137.232 0 143.5 6.23275 143.5 13.9647C143.5 43.099 143.5 100.901 143.5 130.035C143.5 137.767 137.232 144 129.5 144H109.687H34.3126H14C6.26801 144 0 137.732 0 130V14C0 6.26801 6.26801 0 14 0H34.3126H109.687Z" fill="url(#paint0_linear_181_1602)"/>
<path d="M43.6161 45.3962L50.2145 100.383L32.5771 82.7452C29.9619 80.13 29.2603 76.1556 30.8263 72.8036L43.6161 45.3962Z" fill="#1565C0"/>
<path d="M81.7096 32.9011C79.851 31.0425 77.3327 30 74.7065 30C73.0679 30 71.4535 30.4069 70.0107 31.1833L43.6172 45.3962V90.1397C43.6172 92.4734 44.5432 94.7102 46.195 96.3598L50.2156 100.383H98.6036V89.3853L114 65.1913L81.7096 32.9011Z" fill="#42A5F5"/>
<path d="M43.6172 45.3962H90.5602C92.8938 45.3962 95.1307 46.3222 96.7803 47.974L114 65.1913V100.383H98.6036L43.6172 45.3962Z" fill="#1565C0"/>
<path d="M98.6029 100.383H50.2148L63.4116 113.579H98.6029V100.383Z" fill="#85CBF8"/>
<defs>
<linearGradient id="paint0_linear_181_1602" x1="72" y1="3.37589e-08" x2="72" y2="144" gradientUnits="userSpaceOnUse">
<stop offset="0.095" stop-color="white" stop-opacity="0"/>
<stop offset="1" stop-color="#00A6FF" stop-opacity="0.33"/>
</linearGradient>
</defs>
</svg>
