<svg width="130" height="130" viewBox="0 0 130 130" fill="none" xmlns="http://www.w3.org/2000/svg">
<path d="M0 63.3133C0 37.9373 21.3103 0 65.0455 0C108.719 0 130 32.2498 130 54.9413C130 73.1543 115.606 86.5702 97.526 86.5702C83.7297 86.5702 75.5593 81.9943 75.5593 78.3478C75.5593 75.9883 81.263 72.3775 81.263 65.4062C81.263 57.07 74.8085 48.711 64.8667 48.711C55.3312 48.711 48.7013 56.6475 48.7013 64.6522C48.7013 83.9962 66.9988 102.495 93.977 102.495C110.094 102.495 115.944 96.5542 118.037 96.5542C118.674 96.5542 120.139 96.8143 120.139 98.514C120.139 100.139 102.31 129.994 65.0845 129.994C28.054 130 0 100.825 0 63.3133Z" fill="#1DE9B6"/>
<path d="M0 63.3132C0 37.9372 24.7488 24.1832 41.3725 24.1832C85.0493 24.1832 97.5228 32.253 97.5228 54.9445C97.5228 73.1575 81.263 72.384 81.263 65.4127C81.263 57.0765 74.8085 48.7175 64.8668 48.7175C55.3313 48.7175 48.7013 56.654 48.7013 64.6587C48.7013 84.0027 66.9988 102.502 93.977 102.502C110.094 102.502 115.944 96.5607 118.037 96.5607C118.674 96.5607 120.14 96.8207 120.14 98.5205C120.14 100.145 102.31 130 65.0845 130C28.054 130 0 100.825 0 63.3132Z" fill="url(#paint0_radial_181_1683)"/>
<path d="M48.7023 64.6555C48.7023 57.187 54.4711 49.7868 62.9861 48.8248C49.6481 49.959 34.3926 63.0435 34.3926 87.2755C34.3926 113.155 56.7006 131.037 79.7073 128.316C106.962 122.054 120.141 99.9115 120.141 98.5205C120.141 96.8207 118.675 96.5607 118.038 96.5607C115.948 96.5607 110.095 102.502 93.9781 102.502C66.9998 102.502 48.7023 84.0027 48.7023 64.6555Z" fill="url(#paint1_radial_181_1683)"/>
<path d="M0 63.3133C0 37.9373 21.3103 0 65.0455 0C108.719 0 130 32.2498 130 54.9413C130 73.1543 115.606 86.5703 97.526 86.5703C83.7297 86.5703 75.5593 81.9943 75.5593 78.3478C75.5593 75.9883 81.263 72.3775 81.263 65.4063C81.263 57.07 74.516 30.7028 40.222 30.7028C30.6865 30.706 4.082 34.9213 0 63.3133Z" fill="url(#paint2_radial_181_1683)"/>
<defs>
<radialGradient id="paint0_radial_181_1683" cx="0" cy="0" r="1" gradientUnits="userSpaceOnUse" gradientTransform="translate(45.4773 93.7656) scale(69.381 76.895)">
<stop offset="0.652" stop-color="#0083DE"/>
<stop offset="0.822" stop-color="#006AAC"/>
<stop offset="0.944" stop-color="#005A8C"/>
</radialGradient>
<radialGradient id="paint1_radial_181_1683" cx="0" cy="0" r="1" gradientUnits="userSpaceOnUse" gradientTransform="translate(78.2676 82.2576) scale(53.5535 53.7034)">
<stop offset="0.69" stop-color="#05509B"/>
<stop offset="0.717" stop-color="#054E98"/>
<stop offset="1" stop-color="#033E78"/>
</radialGradient>
<radialGradient id="paint2_radial_181_1683" cx="0" cy="0" r="1" gradientUnits="userSpaceOnUse" gradientTransform="translate(141.856 39.1834) rotate(180) scale(199.979 301.648)">
<stop stop-color="#5EEB69"/>
<stop offset="0.214" stop-color="#4BC958"/>
<stop offset="0.225" stop-color="#4AC862"/>
<stop offset="0.272" stop-color="#47C68B"/>
<stop offset="0.323" stop-color="#44C4AE"/>
<stop offset="0.376" stop-color="#41C2CB"/>
<stop offset="0.433" stop-color="#3FC1E1"/>
<stop offset="0.495" stop-color="#3EC0F1"/>
<stop offset="0.565" stop-color="#3DBFFA"/>
<stop offset="0.664" stop-color="#3DBFFD"/>
</radialGradient>
</defs>
</svg>
