<svg width="52" height="26" viewBox="0 0 52 26" fill="none" xmlns="http://www.w3.org/2000/svg">
<g clip-path="url(#clip0_186_1731)">
<g clip-path="url(#clip1_186_1731)">
<path d="M58 31.5H1L5.98164 28.2194C16.1048 21.5529 27.96 18 40.0811 18H58V31.5Z" fill="url(#paint0_linear_186_1731)" fill-opacity="0.9"/>
<path d="M-0.0999811 29.8297L-5.67346 33.5H1H58H60V31.5V18V16H58H40.0811C27.569 16 15.3314 19.6676 4.88166 26.5491L-0.0999811 29.8297Z" stroke="#80E1F9" stroke-opacity="0.32" stroke-width="4"/>
<path d="M20.9695 26.8228C16.143 27.1424 14.312 29.6862 14 31H54C52.9381 29.948 51.1269 28.35 48.8562 26.7895C45.0684 24.1864 40 22 35 22C29.0046 22 24.6542 24.0794 22.6748 26.0133C22.2122 26.4652 21.6149 26.78 20.9695 26.8228Z" fill="url(#paint1_linear_186_1731)"/>
<g filter="url(#filter0_i_186_1731)">
<rect x="32" y="3" width="4" height="4" fill="url(#paint2_linear_186_1731)"/>
</g>
<g filter="url(#filter1_i_186_1731)">
<path d="M36.0657 4H31.9343C31.5349 4 31.2967 3.55493 31.5182 3.22265L32.916 1.12596C32.9708 1.04383 33 0.947325 33 0.848612V0.5C33 0.223858 33.2239 0 33.5 0H34.5C34.7761 0 35 0.223858 35 0.5V0.848612C35 0.947325 35.0292 1.04383 35.084 1.12596L36.4818 3.22265C36.7033 3.55493 36.4651 4 36.0657 4Z" fill="url(#paint3_linear_186_1731)"/>
</g>
<g filter="url(#filter2_i_186_1731)">
<path d="M32.5525 6.43579L30.7451 5.41914C30.4118 5.23165 30 5.47251 30 5.85492V7.875C30 7.95707 30.0202 8.03788 30.0588 8.11029L30.4819 8.90348C30.5158 8.96707 30.5355 9.03725 30.5398 9.1092L31.0667 18L30.5647 26.4704C30.5477 26.7577 30.7761 27 31.0638 27H37.4372C37.7367 27 37.969 26.7385 37.9338 26.4412L36.9386 18.0441C36.9351 18.0148 36.9342 17.9852 36.936 17.9557L37.4602 9.1092C37.4645 9.03725 37.4842 8.96707 37.5181 8.90348L37.9412 8.11029C37.9798 8.03788 38 7.95707 38 7.875V5.85492C38 5.47251 37.5882 5.23165 37.2549 5.41914L35.4475 6.43579C35.3726 6.47789 35.2882 6.5 35.2024 6.5H32.7976C32.7118 6.5 32.6274 6.47789 32.5525 6.43579Z" fill="url(#paint4_linear_186_1731)"/>
<path d="M33 15C33 14.4477 33.4477 14 34 14V14C34.5523 14 35 14.4477 35 15V17.3333H33V15Z" fill="url(#paint5_linear_186_1731)"/>
<path d="M32.5 21.5C32.5 20.6716 33.1716 20 34 20V20C34.8284 20 35.5 20.6716 35.5 21.5V25H32.5V21.5Z" fill="url(#paint6_linear_186_1731)"/>
<path d="M33 10C33 9.44771 33.4477 9 34 9V9C34.5523 9 35 9.44772 35 10V12.3333H33V10Z" fill="url(#paint7_linear_186_1731)"/>
</g>
</g>
</g>
<defs>
<filter id="filter0_i_186_1731" x="32" y="3" width="4" height="4" filterUnits="userSpaceOnUse" color-interpolation-filters="sRGB">
<feFlood flood-opacity="0" result="BackgroundImageFix"/>
<feBlend mode="normal" in="SourceGraphic" in2="BackgroundImageFix" result="shape"/>
<feColorMatrix in="SourceAlpha" type="matrix" values="0 0 0 0 0 0 0 0 0 0 0 0 0 0 0 0 0 0 127 0" result="hardAlpha"/>
<feOffset/>
<feGaussianBlur stdDeviation="1"/>
<feComposite in2="hardAlpha" operator="arithmetic" k2="-1" k3="1"/>
<feColorMatrix type="matrix" values="0 0 0 0 0 0 0 0 0 0 0 0 0 0 0 0 0 0 0.64 0"/>
<feBlend mode="overlay" in2="shape" result="effect1_innerShadow_186_1731"/>
</filter>
<filter id="filter1_i_186_1731" x="31.4336" y="0" width="5.13281" height="4" filterUnits="userSpaceOnUse" color-interpolation-filters="sRGB">
<feFlood flood-opacity="0" result="BackgroundImageFix"/>
<feBlend mode="normal" in="SourceGraphic" in2="BackgroundImageFix" result="shape"/>
<feColorMatrix in="SourceAlpha" type="matrix" values="0 0 0 0 0 0 0 0 0 0 0 0 0 0 0 0 0 0 127 0" result="hardAlpha"/>
<feOffset/>
<feGaussianBlur stdDeviation="1"/>
<feComposite in2="hardAlpha" operator="arithmetic" k2="-1" k3="1"/>
<feColorMatrix type="matrix" values="0 0 0 0 0 0 0 0 0 0 0 0 0 0 0 0 0 0 0.64 0"/>
<feBlend mode="overlay" in2="shape" result="effect1_innerShadow_186_1731"/>
</filter>
<filter id="filter2_i_186_1731" x="30" y="5.35425" width="8" height="21.6458" filterUnits="userSpaceOnUse" color-interpolation-filters="sRGB">
<feFlood flood-opacity="0" result="BackgroundImageFix"/>
<feBlend mode="normal" in="SourceGraphic" in2="BackgroundImageFix" result="shape"/>
<feColorMatrix in="SourceAlpha" type="matrix" values="0 0 0 0 0 0 0 0 0 0 0 0 0 0 0 0 0 0 127 0" result="hardAlpha"/>
<feOffset/>
<feGaussianBlur stdDeviation="1"/>
<feComposite in2="hardAlpha" operator="arithmetic" k2="-1" k3="1"/>
<feColorMatrix type="matrix" values="0 0 0 0 0 0 0 0 0 0 0 0 0 0 0 0 0 0 0.64 0"/>
<feBlend mode="overlay" in2="shape" result="effect1_innerShadow_186_1731"/>
</filter>
<linearGradient id="paint0_linear_186_1731" x1="58" y1="18" x2="3" y2="31" gradientUnits="userSpaceOnUse">
<stop stop-color="#80E1F9"/>
<stop offset="1" stop-color="#7DE4ED"/>
</linearGradient>
<linearGradient id="paint1_linear_186_1731" x1="14" y1="19.9474" x2="54.253" y2="29.9855" gradientUnits="userSpaceOnUse">
<stop stop-color="#544B3A"/>
<stop offset="1" stop-color="#9C7946"/>
</linearGradient>
<linearGradient id="paint2_linear_186_1731" x1="32" y1="4.5" x2="36" y2="4.5" gradientUnits="userSpaceOnUse">
<stop stop-color="#9AE4EC"/>
<stop offset="0.512052" stop-color="#CCEFDC"/>
<stop offset="1" stop-color="#9AE4EC"/>
</linearGradient>
<linearGradient id="paint3_linear_186_1731" x1="34" y1="-0.5" x2="34" y2="4" gradientUnits="userSpaceOnUse">
<stop stop-color="#6FBBD6"/>
<stop offset="0.744165" stop-color="#41AED2"/>
<stop offset="1" stop-color="#349EC0"/>
</linearGradient>
<linearGradient id="paint4_linear_186_1731" x1="30" y1="14" x2="37.4667" y2="14" gradientUnits="userSpaceOnUse">
<stop stop-color="#E0B852"/>
<stop offset="0.520833" stop-color="#F6E6BA"/>
<stop offset="1" stop-color="#E0B852"/>
</linearGradient>
<linearGradient id="paint5_linear_186_1731" x1="35" y1="14" x2="33" y2="17.3333" gradientUnits="userSpaceOnUse">
<stop stop-color="#634E28"/>
<stop offset="1" stop-color="#BB9D5F"/>
</linearGradient>
<linearGradient id="paint6_linear_186_1731" x1="35.5" y1="20" x2="32.5" y2="25" gradientUnits="userSpaceOnUse">
<stop stop-color="#634E28"/>
<stop offset="1" stop-color="#BB9D5F"/>
</linearGradient>
<linearGradient id="paint7_linear_186_1731" x1="35" y1="9" x2="33" y2="12.3333" gradientUnits="userSpaceOnUse">
<stop stop-color="#634E28"/>
<stop offset="1" stop-color="#BB9D5F"/>
</linearGradient>
<clipPath id="clip0_186_1731">
<rect width="52" height="26" rx="13" fill="white"/>
</clipPath>
<clipPath id="clip1_186_1731">
<rect width="66" height="30" fill="white" transform="translate(-8 -1)"/>
</clipPath>
</defs>
</svg>
