<svg width="144" height="144" viewBox="0 0 144 144" fill="none" xmlns="http://www.w3.org/2000/svg">
<path fill-rule="evenodd" clip-rule="evenodd" d="M109.687 0H130C137.732 0 144 6.23275 144 13.9647C144 43.099 144 100.901 144 130.035C144 137.767 137.732 144 130 144H109.687H14C6.268 144 0 137.732 0 130V109.687V14C0 6.268 6.26801 0 14 0H34.3126H109.687Z" fill="#252525"/>
<g clip-path="url(#clip0_181_1631)">
<path d="M55.5996 120C64.4277 120 71.5996 112.836 71.5996 104V88H55.5996C46.7715 88 39.5996 95.1641 39.5996 104C39.5996 112.836 46.7715 120 55.5996 120Z" fill="#0ACF83"/>
<path d="M39.5996 72C39.5996 63.1719 46.7715 56 55.5996 56H71.5996V88H55.5996C46.7715 88 39.5996 80.8359 39.5996 72Z" fill="#A259FF"/>
<path d="M39.5996 40C39.5996 31.1719 46.7715 24 55.5996 24H71.5996V56H55.5996C46.7715 56 39.5996 48.8359 39.5996 40Z" fill="#F24E1E"/>
<path d="M71.5996 24H87.5996C96.4277 24 103.6 31.1719 103.6 40C103.6 48.8359 96.4355 56 87.5996 56H71.5996V24Z" fill="#FF7262"/>
<path d="M103.6 72C103.6 80.8359 96.4355 88 87.5996 88C78.7637 88 71.5996 80.8359 71.5996 72C71.5996 63.1719 78.7637 56 87.5996 56C96.4355 56 103.6 63.1719 103.6 72Z" fill="#1ABCFE"/>
</g>
<defs>
<clipPath id="clip0_181_1631">
<rect width="64" height="96" fill="white" transform="translate(39.5996 24)"/>
</clipPath>
</defs>
</svg>
