<svg width="144" height="144" viewBox="0 0 144 144" fill="none" xmlns="http://www.w3.org/2000/svg">
<path fill-rule="evenodd" clip-rule="evenodd" d="M130 0C137.732 0 144 6.26801 144 14V34.3126V109.687V130C144 137.732 137.732 144 130 144H14C6.26801 144 0 137.732 0 130V109.687V34.3126V14C0 6.26801 6.26801 0 14 0H130Z" fill="white"/>
<path fill-rule="evenodd" clip-rule="evenodd" d="M130 0C137.732 0 144 6.26801 144 14V34.3126V109.687V130C144 137.732 137.732 144 130 144H14C6.26801 144 0 137.732 0 130V109.687V34.3126V14C0 6.26801 6.26801 0 14 0H130Z" fill="url(#paint0_linear_181_1665)"/>
<path d="M84.0694 40.8C82.5831 40.8 81.3781 42.0049 81.3781 43.4913C81.3781 44.9776 82.5831 46.1825 84.0694 46.1825H96.411L76.8927 65.7009C75.8417 66.7519 75.8417 68.4559 76.8927 69.5069C77.9437 70.5579 79.6477 70.5579 80.6987 69.5069L100.217 49.9886V62.3302C100.217 63.8165 101.422 65.0215 102.908 65.0215C104.395 65.0215 105.6 63.8165 105.6 62.3302V43.4913C105.6 42.0049 104.395 40.8 102.908 40.8H84.0694Z" fill="#363538"/>
<path d="M63.5302 104.4C65.0165 104.4 66.2215 103.195 66.2215 101.709C66.2215 100.222 65.0165 99.0174 63.5302 99.0174H51.1886L70.7069 79.4991C71.7579 78.4481 71.7579 76.744 70.7069 75.693C69.6559 74.642 67.9519 74.642 66.9009 75.693L47.3825 95.2114V82.8698C47.3825 81.3834 46.1776 80.1785 44.6913 80.1785C43.2049 80.1785 42 81.3834 42 82.8698V101.709C42 103.195 43.2049 104.4 44.6913 104.4H63.5302Z" fill="#4E0CD1"/>
<defs>
<linearGradient id="paint0_linear_181_1665" x1="72" y1="3.37589e-08" x2="72" y2="144" gradientUnits="userSpaceOnUse">
<stop stop-color="white" stop-opacity="0"/>
<stop offset="1" stop-color="#999999" stop-opacity="0.33"/>
</linearGradient>
</defs>
</svg>
